<svg xmlns="http://www.w3.org/2000/svg" data-name="Layer 2" viewBox="0 0 276.62 134.76"><g data-name="Layer 1"><path d="M0 0h37.74c12.49 0 22.64 10.13 22.64 22.64v89.07c0 12.49-10.13 22.64-22.64 22.64H0V0Zm36.23 30.19c0-3.34-2.7-6.04-6.04-6.04h-6.04v86.04h6.04c3.34 0 6.04-2.7 6.04-6.04V30.19Zm88.37 104.13H99.35l-.78-21.51h-8.73l-.8 21.51H63.85L71.39 0h45.66l7.55 134.32ZM97.66 88.69l-2.37-64.52h-2.18l-2.4 64.52h6.94Zm80.22-10.04 12.7 55.68h-26.66l-9.74-50.34h-2.02v50.34h-24.15V0h33.96c14.58 0 26.41 11.83 26.41 26.41v31.16c0 8.61-4.12 16.27-10.51 21.07Zm-25.72-18.81h6.04c3.34 0 6.04-2.7 6.04-6.04V30.19c0-3.34-2.7-6.04-6.04-6.04h-6.04v35.69Zm63.81-4.74h26.22v24.13h-26.22v30.95h30.17v24.15h-54.32V0h54.32v24.15h-30.17V55.1Zm51.96 56.96c0-.53-.42-.98-.95-.98-.27 0-.51.11-.69.28a.96.96 0 0 0-.28.68v12.57c0 .27.11.51.28.68.17.17.42.28.69.28.53 0 .95-.45.95-.98v-4.37h3.84v4.99a4.2 4.2 0 0 1-4.2 4.2h-1.2a4.2 4.2 0 0 1-4.2-4.2v-13.77c0-2.31 1.88-4.19 4.2-4.19h1.2a4.2 4.2 0 0 1 4.2 4.2v4.94h-3.84v-4.31Z" style="fill:#1a1a2e"/><rect width="16.31" height="29.75" x="258.82" y="103.5" rx="8.15" ry="8.15" style="fill:none;stroke:#1a1a2e;stroke-miterlimit:10;stroke-width:3px"/></g></svg>